{
  "accessors": [
    {
      "bufferView": 2,
      "componentType": 5126,
      "count": 4,
      "max": [
        -0.5148190259933472,
        0.047805000096559525,
        1.5177110433578491
      ],
      "min": [
        -0.5302000045776367,
        0.039507001638412476,
        1.5064690113067627
      ],
      "type": "VEC3"
    },
    {
      "bufferView": 2,
      "byteOffset": 48,
      "componentType": 5126,
      "count": 4,
      "max": [
        0.587346613407135,
        0.07922500371932983,
        0.8054490089416504
      ],
      "min": [
        0.5873460173606873,
        0.07922495901584625,
        0.8054485321044922
      ],
      "type": "VEC3"
    },
    {
      "bufferView": 1,
      "componentType": 5126,
      "count": 4,
      "max": [
        0.0,
        0.0
      ],
      "min": [
        0.0,
        0.0
      ],
      "type": "VEC2"
    },
    {
      "bufferView": 0,
      "componentType": 5125,
      "count": 6,
      "type": "SCALAR"
    },
    {
      "bufferView": 2,
      "byteOffset": 96,
      "componentType": 5126,
      "count": 44938,
      "max": [
        1.2979789972305298,
        1.3150039911270142,
        5.60446310043335
      ],
      "min": [
        -1.042502999305725,
        -2.239500045776367,
        -0.05640999972820282
      ],
      "type": "VEC3"
    },
    {
      "bufferView": 2,
      "byteOffset": 539352,
      "componentType": 5126,
      "count": 44938,
      "max": [
        0.9999533295631409,
        0.9999046325683594,
        0.9999678730964661
      ],
      "min": [
        -1.0,
        -0.9998243451118469,
        -0.9998798966407776
      ],
      "type": "VEC3"
    },
    {
      "bufferView": 1,
      "byteOffset": 32,
      "componentType": 5126,
      "count": 44938,
      "max": [
        0.997573971748352,
        0.995235025882721
      ],
      "min": [
        0.0021269998978823423,
        0.0015200000489130616
      ],
      "type": "VEC2"
    },
    {
      "bufferView": 0,
      "byteOffset": 24,
      "componentType": 5125,
      "count": 232398,
      "type": "SCALAR"
    }
  ],
  "asset": {
    "extras": {
      "author": "Suushimi (https://sketchfab.com/Suushimi)",
      "license": "CC-BY-NC-4.0 (http://creativecommons.org/licenses/by-nc/4.0/)",
      "source": "https://sketchfab.com/3d-models/running-boy-0c80a9edd3514af0902349233d2c8d8f",
      "title": "Running boy"
    },
    "generator": "Sketchfab-12.66.0",
    "version": "2.0"
  },
  "bufferViews": [
    {
      "buffer": 0,
      "byteLength": 929616,
      "name": "floatBufferViews",
      "target": 34963
    },
    {
      "buffer": 0,
      "byteLength": 359536,
      "byteOffset": 929616,
      "byteStride": 8,
      "name": "floatBufferViews",
      "target": 34962
    },
    {
      "buffer": 0,
      "byteLength": 1078608,
      "byteOffset": 1289152,
      "byteStride": 12,
      "name": "floatBufferViews",
      "target": 34962
    }
  ],
  "buffers": [
    {
      "byteLength": 2367760,
      "uri": "scene.bin"
    }
  ],
  "images": [
    {
      "uri": "textures/lambert3SG_baseColor.png"
    }
  ],
  "materials": [
    {
      "doubleSided": true,
      "name": "lambert3SG",
      "pbrMetallicRoughness": {
        "baseColorTexture": {
          "index": 0
        },
        "metallicFactor": 0.0,
        "roughnessFactor": 0.5793264992186977
      }
    }
  ],
  "meshes": [
    {
      "name": "Object_0",
      "primitives": [
        {
          "attributes": {
            "NORMAL": 1,
            "POSITION": 0,
            "TEXCOORD_0": 2
          },
          "indices": 3,
          "material": 0,
          "mode": 4
        }
      ]
    },
    {
      "name": "Object_1",
      "primitives": [
        {
          "attributes": {
            "NORMAL": 5,
            "POSITION": 4,
            "TEXCOORD_0": 6
          },
          "indices": 7,
          "material": 0,
          "mode": 4
        }
      ]
    }
  ],
  "nodes": [
    {
      "children": [
        1
      ],
      "matrix": [
        1.0,
        0.0,
        0.0,
        0.0,
        0.0,
        2.220446049250313e-16,
        -1.0,
        0.0,
        0.0,
        1.0,
        2.220446049250313e-16,
        0.0,
        0.0,
        0.0,
        0.0,
        1.0
      ],
      "name": "Sketchfab_model"
    },
    {
      "children": [
        2,
        3
      ],
      "name": "Running_pose.obj.cleaner.materialmerger.gles"
    },
    {
      "mesh": 0,
      "name": "Object_2"
    },
    {
      "mesh": 1,
      "name": "Object_3"
    }
  ],
  "samplers": [
    {
      "magFilter": 9729,
      "minFilter": 9987,
      "wrapS": 10497,
      "wrapT": 10497
    }
  ],
  "scene": 0,
  "scenes": [
    {
      "name": "Sketchfab_Scene",
      "nodes": [
        0
      ]
    }
  ],
  "textures": [
    {
      "sampler": 0,
      "source": 0
    }
  ]
}
