<?xml version="1.0" encoding="utf-8"?>
<!-- Generator: Adobe Illustrator 26.5.0, SVG Export Plug-In . SVG Version: 6.00 Build 0)  -->
<svg version="1.1" id="logo" xmlns="http://www.w3.org/2000/svg" xmlns:xlink="http://www.w3.org/1999/xlink" x="0px" y="0px"
	 viewBox="0 0 250.1 294.9" style="enable-background:new 0 0 250.1 294.9;" xml:space="preserve">
<style type="text/css">
	.st0{fill:#E43F5A;}
</style>
<path class="st0" d="M238.7,5.2c-39.9-21.1-62.9,25.3-91,84.9c0,0,0,0,0,0c-27.3-14-64.3-7.9-82.3,23.8c-2.1,3.1-3.9,6.5-5.4,10.3
	c-43.8,111-79,149.3-48.6,165.5c39.9,21.1,62.9-25.3,91-84.9c0,0,0,0,0,0c27.3,14,64.3,7.9,82.3-23.8c2.1-3.1,4-6.5,5.4-10.3
	C233.9,59.7,269.1,21.3,238.7,5.2z M125.1,177.5c-16.6,0-30.1-13.5-30.1-30.1c0-16.6,13.5-30.1,30.1-30.1
	c16.6,0,30.1,13.5,30.1,30.1C155.1,164,141.7,177.5,125.1,177.5z"/>
</svg>
